<mxfile host="app.diagrams.net" modified="2021-09-01T12:12:53.430Z" agent="5.0 (Macintosh)" etag="O_xO8rS4HcXPpDvtg0vL" version="15.0.4" type="github">
  <diagram id="YZ68e-nUa0-JOy6-buV9" name="Page-1">
    <mxGraphModel dx="1666" dy="831" grid="1" gridSize="10" guides="1" tooltips="1" connect="1" arrows="1" fold="1" page="1" pageScale="1" pageWidth="827" pageHeight="1169" math="0" shadow="0">
      <root>
        <mxCell id="0" />
        <mxCell id="1" parent="0" />
        <mxCell id="0NcoyNJtQnxrWjz9oruJ-1" value="" style="shape=table;startSize=0;container=1;collapsible=0;childLayout=tableLayout;" vertex="1" parent="1">
          <mxGeometry x="110" y="210" width="780" height="40" as="geometry" />
        </mxCell>
        <mxCell id="0NcoyNJtQnxrWjz9oruJ-2" value="" style="shape=partialRectangle;collapsible=0;dropTarget=0;pointerEvents=0;fillColor=none;top=0;left=0;bottom=0;right=0;points=[[0,0.5],[1,0.5]];portConstraint=eastwest;" vertex="1" parent="0NcoyNJtQnxrWjz9oruJ-1">
          <mxGeometry width="780" height="40" as="geometry" />
        </mxCell>
        <mxCell id="0NcoyNJtQnxrWjz9oruJ-3" value="&lt;b&gt;Troubleshooting&lt;/b&gt;" style="shape=partialRectangle;html=1;whiteSpace=wrap;connectable=0;overflow=hidden;fillColor=none;top=0;left=0;bottom=0;right=0;pointerEvents=1;" vertex="1" parent="0NcoyNJtQnxrWjz9oruJ-2">
          <mxGeometry width="780" height="40" as="geometry" />
        </mxCell>
        <mxCell id="0NcoyNJtQnxrWjz9oruJ-4" value="" style="shape=table;startSize=0;container=1;collapsible=0;childLayout=tableLayout;" vertex="1" parent="1">
          <mxGeometry x="110" y="250" width="360" height="40" as="geometry" />
        </mxCell>
        <mxCell id="0NcoyNJtQnxrWjz9oruJ-5" value="" style="shape=partialRectangle;collapsible=0;dropTarget=0;pointerEvents=0;fillColor=none;top=0;left=0;bottom=0;right=0;points=[[0,0.5],[1,0.5]];portConstraint=eastwest;" vertex="1" parent="0NcoyNJtQnxrWjz9oruJ-4">
          <mxGeometry width="360" height="40" as="geometry" />
        </mxCell>
        <mxCell id="0NcoyNJtQnxrWjz9oruJ-6" value="How to solve the problems" style="shape=partialRectangle;html=1;whiteSpace=wrap;connectable=0;overflow=hidden;fillColor=none;top=0;left=0;bottom=0;right=0;pointerEvents=1;" vertex="1" parent="0NcoyNJtQnxrWjz9oruJ-5">
          <mxGeometry width="360" height="40" as="geometry" />
        </mxCell>
        <mxCell id="0NcoyNJtQnxrWjz9oruJ-13" value="" style="shape=table;startSize=0;container=1;collapsible=0;childLayout=tableLayout;" vertex="1" parent="1">
          <mxGeometry x="110" y="290" width="360" height="180" as="geometry" />
        </mxCell>
        <mxCell id="0NcoyNJtQnxrWjz9oruJ-14" value="" style="shape=partialRectangle;collapsible=0;dropTarget=0;pointerEvents=0;fillColor=none;top=0;left=0;bottom=0;right=0;points=[[0,0.5],[1,0.5]];portConstraint=eastwest;" vertex="1" parent="0NcoyNJtQnxrWjz9oruJ-13">
          <mxGeometry width="360" height="180" as="geometry" />
        </mxCell>
        <mxCell id="0NcoyNJtQnxrWjz9oruJ-15" value="" style="shape=partialRectangle;html=1;whiteSpace=wrap;connectable=0;overflow=hidden;fillColor=none;top=0;left=0;bottom=0;right=0;pointerEvents=1;" vertex="1" parent="0NcoyNJtQnxrWjz9oruJ-14">
          <mxGeometry width="360" height="180" as="geometry" />
        </mxCell>
        <mxCell id="0NcoyNJtQnxrWjz9oruJ-16" value="" style="shape=table;startSize=0;container=1;collapsible=0;childLayout=tableLayout;" vertex="1" parent="1">
          <mxGeometry x="470" y="250" width="420" height="40" as="geometry" />
        </mxCell>
        <mxCell id="0NcoyNJtQnxrWjz9oruJ-17" value="" style="shape=partialRectangle;collapsible=0;dropTarget=0;pointerEvents=0;fillColor=none;top=0;left=0;bottom=0;right=0;points=[[0,0.5],[1,0.5]];portConstraint=eastwest;" vertex="1" parent="0NcoyNJtQnxrWjz9oruJ-16">
          <mxGeometry width="420" height="40" as="geometry" />
        </mxCell>
        <mxCell id="0NcoyNJtQnxrWjz9oruJ-18" value="Feedback of users" style="shape=partialRectangle;html=1;whiteSpace=wrap;connectable=0;overflow=hidden;fillColor=none;top=0;left=0;bottom=0;right=0;pointerEvents=1;" vertex="1" parent="0NcoyNJtQnxrWjz9oruJ-17">
          <mxGeometry width="420" height="40" as="geometry" />
        </mxCell>
        <mxCell id="0NcoyNJtQnxrWjz9oruJ-19" value="" style="shape=table;startSize=0;container=1;collapsible=0;childLayout=tableLayout;" vertex="1" parent="1">
          <mxGeometry x="470" y="290" width="420" height="180" as="geometry" />
        </mxCell>
        <mxCell id="0NcoyNJtQnxrWjz9oruJ-20" value="" style="shape=partialRectangle;collapsible=0;dropTarget=0;pointerEvents=0;fillColor=none;top=0;left=0;bottom=0;right=0;points=[[0,0.5],[1,0.5]];portConstraint=eastwest;" vertex="1" parent="0NcoyNJtQnxrWjz9oruJ-19">
          <mxGeometry width="420" height="180" as="geometry" />
        </mxCell>
        <mxCell id="0NcoyNJtQnxrWjz9oruJ-21" value="" style="shape=partialRectangle;html=1;whiteSpace=wrap;connectable=0;overflow=hidden;fillColor=none;top=0;left=0;bottom=0;right=0;pointerEvents=1;" vertex="1" parent="0NcoyNJtQnxrWjz9oruJ-20">
          <mxGeometry width="420" height="180" as="geometry" />
        </mxCell>
      </root>
    </mxGraphModel>
  </diagram>
</mxfile>
